@startuml
title Benchmarking Overview
class "std::vector<double>" as C_0004101108369970767411
class C_0004101108369970767411 {
__
}
class "std::vector<uint32_t>" as C_0008659206544950497298
class C_0008659206544950497298 {
__
}
class "std::function<TOrder()>" as C_0018274157797402886569
class C_0018274157797402886569 {
__
}
class "std::vector<std::function<TOrder()>>" as C_0015071573456055921610
class C_0015071573456055921610 {
__
}
class "std::optional<uint32_t>" as C_0016951693323196263165
class C_0016951693323196263165 {
__
}
class "std::mersenne_twister_engine<uint_fast32_t,32,624,397,31,0x9908b0df,11,0xffffffff,7,0x9d2c5680,15,0xefc60000,18,1812433253>" as C_0011895198819008469883
class C_0011895198819008469883 {
__
}
class "std::uniform_int_distribution<int>" as C_0001157372402074594407
class C_0001157372402074594407 {
__
}
class "std::vector<TOrder>" as C_0001502315327506686249
class C_0001502315327506686249 {
__
}
class "std::vector<uint64_t>" as C_0004868660622095439450
class C_0004868660622095439450 {
__
}
class "std::atomic<int>" as C_0010475541865559020492
class C_0010475541865559020492 {
__
}
class "std::queue<TOrder>" as C_0011163234010607091668
class C_0011163234010607091668 {
__
}
class "std::atomic<T>" as C_0015917489165880891568
class C_0015917489165880891568 {
__
}
class "std::__make_signed_t<unsigned long>" as C_0003403297090366118165
class C_0003403297090366118165 {
__
}
class "std::atomic<bool>" as C_0006141393625057497785
class C_0006141393625057497785 {
__
}
class "std::is_trivially_destructible<T>" as C_0006434691970608931182
class C_0006434691970608931182 {
__
}
class "std::atomic<ProducerBase *>" as C_0009731533903661377328
class C_0009731533903661377328 {
__
}
class "std::atomic<uint32_t>" as C_0008715103624241555149
class C_0008715103624241555149 {
__
}
class "std::atomic<moodycamel::ConcurrentQueue::size_t>" as C_0003951836044858157539
class C_0003951836044858157539 {
__
}
class "std::atomic<ImplicitProducerHash *>" as C_0006103817506749732769
class C_0006103817506749732769 {
__
}
class "std::array<moodycamel::ConcurrentQueue::ImplicitProducerKVP,INITIAL_IMPLICIT_PRODUCER_HASH_SIZE>" as C_0017265195126605227022
class C_0017265195126605227022 {
__
}
class "std::atomic<N *>" as C_0017436445626497553805
class C_0017436445626497553805 {
__
}
class "std::atomic<Block *>" as C_0008029349524528707546
class C_0008029349524528707546 {
__
}
class "std::atomic<moodycamel::ConcurrentQueue::index_t>" as C_0008341635386930600517
class C_0008341635386930600517 {
__
}
class "std::atomic<BlockIndexHeader *>" as C_0009393301499987978215
class C_0009393301499987978215 {
__
}
class "std::atomic<moodycamel::details::thread_id_t>" as C_0012234620782510432960
class C_0012234620782510432960 {
__
}
class "std::vector<BenchmarkOrder>" as C_0016037793634526659641
class C_0016037793634526659641 {
__
}
enum "TestType" as C_0005382069405675192202
enum C_0005382069405675192202 {
STRESS
ORDER
}
class "TestParams" as C_0000545256936882154136
class C_0000545256936882154136 {
__
+seed : uint32_t
+test : TestType
+thread_count : uint64_t
+thread_order_limit : uint64_t
+total_orders : uint64_t
}
class "TradesCycle" as C_0001541704363114617379
class C_0001541704363114617379 {
__
+cycle : int
+prices : std::vector<double>
+quantities : std::vector<uint32_t>
}
enum "OrderType" as C_0001318154217281991402
enum C_0001318154217281991402 {
BUY
SELL
CANCEL
}
class "BenchmarkOrder" as C_0007154198836549622057
class C_0007154198836549622057 {
__
+order_id : uint64_t
+price : double
+quantity : uint32_t
+sequence_number : uint64_t
+timestamp : uint64_t
+type : OrderType
}
class "MatchingEngine<TOrder>" as C_0012117148133954156937
class C_0012117148133954156937 {
+MatchingEngine(double) : void
..
+convertOrder(const TOrder &) : BookOrder
+matchBuy(BookOrder *) : TradesCycle
+matchSell(BookOrder *) : TradesCycle
+priceToTicks(double) : uint32_t
+processOrder(BookOrder *) : TradesCycle
+ticksToPrice(uint32_t) : double
__
+buy_book : PriceBook
+cycle : int
+price_scale : uint32_t
+sell_book : PriceBook
+tick_size : double
}
class "IOrderGenerator<TOrder,OrderGenImpl>" as C_0005927283058235908490
class C_0005927283058235908490 {
+generate() : TOrder
__
}
class "CollectionOrderGenerator<TOrder>" as C_0006074800203009140101
class C_0006074800203009140101 {
+CollectionOrderGenerator(std::vector<std::function<TOrder ()>> generators, std::optional<uint32_t> seed = std::nullopt) : void
..
+generateOrder() : TOrder
__
-generatorsVector : std::vector<std::function<TOrder ()>>
-orderGenerators : std::uniform_int_distribution<int>
-orderId_ : uint64_t
-rng_ : std::mt19937
}
class "IOrderGenerator<TOrder,CollectionOrderGenerator<TOrder>>" as C_0004426522355160941721
class C_0004426522355160941721 {
__
}
class "CollectionOrderGenerator<BenchmarkOrder>" as C_0012299635414718796748
class C_0012299635414718796748 {
__
}
class "BenchmarkWrapper<DataStructure,TOrder>" as C_0004197219859795910943
class C_0004197219859795910943 {
+BenchmarkWrapper(DataStructure & structure, TestParams & params) : void
+~BenchmarkWrapper() : void
..
+addDeqThread() : int
+addEnqThread() : int
+dequeueLatency(TOrder & o, int threadId) : bool
+dequeueOrdering(TOrder & o, int threadId) : bool
+enqueueOrder(TOrder & o, int threadId) : bool
+processLatencies() : void
+processMatching(std::vector<TOrder> & orders, std::vector<uint64_t> & actual_order) : void
+processOrders(CollectionOrderGenerator<BenchmarkOrder> & generator) : void
__
-NUM_THREADS_ : const uint64_t
-THREAD_LIMIT_ : const uint64_t
-TOTAL_ORDERS_ : const uint64_t
-current_cycle_ : uint64_t
-dequeue_thread_id : std::atomic<int>
-enqueue_thread_id_ : std::atomic<int>
-exchange_ : MatchingEngine<TOrder>
-latencies_dequeue_ : uint64_t *
-latencies_enqueue_ : uint64_t *
-local_index_deq_ : std::vector<uint64_t>
-local_index_enq_ : std::vector<uint64_t>
-sequence_dequeue_ : uint64_t *
-structure_ : DataStructure &
-timestamps_dequeue_ : uint64_t *
}
class "IQueue<TOrder,QueueImpl>" as C_0012363341514023868006
class C_0012363341514023868006 {
+dequeue(TOrder & order) : bool
+empty() : bool
+enqueue(TOrder & order) : bool
+front(TOrder & order) : bool
+size() : uint64_t
__
}
class "RegularQueue<TOrder>" as C_0011311009255428972885
class C_0011311009255428972885 {
+RegularQueue() : void
..
+dequeueOrder(TOrder & order) : bool
+enqueueOrder(TOrder & order) : bool
+getFront(TOrder & order) : bool
+getSize() : uint64_t
+isEmpty() : bool
__
-mutexLock_ : std::mutex
-queue_ : std::queue<TOrder>
-size_ : uint64_t
}
class "IQueue<TOrder,RegularQueue<TOrder>>" as C_0010851425212132458938
class C_0010851425212132458938 {
__
}
enum "moodycamel::memory_order" as C_0010554955924483232580
enum C_0010554955924483232580 {
memory_order_relaxed
memory_order_acquire
memory_order_release
memory_order_acq_rel
memory_order_seq_cst
memory_order_sync
}
class "moodycamel::weak_atomic<T>" as C_0004060610673416376720
class C_0004060610673416376720 {
+weak_atomic() : void
+weak_atomic(const weak_atomic<T> & other) : void
+weak_atomic(weak_atomic<T> && other) : void
+weak_atomic<U>(U && x) : void
..
+operator=(const weak_atomic<T> & other) : const weak_atomic<T> &
..
+operator=<U>(U && x) : const weak_atomic<T> &
..
+fetch_add_acquire(T increment) : T
+fetch_add_release(T increment) : T
+load() const : T
+operator type-parameter-0-0() const : T
__
-value : std::atomic<T>
}
class "moodycamel::spsc_sema::Semaphore" as C_0009548065447884463581
class C_0009548065447884463581 {
-Semaphore(const Semaphore & other) : void
+Semaphore(int initialCount = 0) : void
+~Semaphore() : void
..
-operator=(const Semaphore & other) : Semaphore &
..
+signal() : void
+signal(int count) : void
+timed_wait(std::uint64_t timeout_usecs) : bool
+try_wait() : bool
+wait() : bool
__
-m_sema : semaphore_t
}
class "moodycamel::spsc_sema::LightweightSemaphore" as C_0008779611149973792242
class C_0008779611149973792242 {
+LightweightSemaphore(ssize_t initialCount = 0) : void
..
+availableApprox() const : std::size_t
+signal(ssize_t count = 1) : void
+tryWait() : bool
+wait() : bool
+wait(std::int64_t timeout_usecs) : bool
-waitWithPartialSpinning(std::int64_t timeout_usecs = -1) : bool
__
-m_count : weak_atomic<ssize_t>
-m_sema : Semaphore
}
class "moodycamel::weak_atomic<std::__make_signed_t<unsigned long>>" as C_0006032237364370801877
class C_0006032237364370801877 {
__
}
class "moodycamel::weak_atomic<Block *>" as C_0002352003492599364807
class C_0002352003492599364807 {
__
}
class "moodycamel::weak_atomic<bool>" as C_0001132556369915620544
class C_0001132556369915620544 {
__
}
class "moodycamel::ReaderWriterQueue<T,size_t MAX_BLOCK_SIZE=512>" as C_0009385575831178810672
class C_0009385575831178810672 {
+ReaderWriterQueue(size_t size = 15) : void
+ReaderWriterQueue(ReaderWriterQueue<T,MAX_BLOCK_SIZE> && other) : void
-ReaderWriterQueue(const ReaderWriterQueue<T,MAX_BLOCK_SIZE> &) : void
+~ReaderWriterQueue() : void
..
+operator=(ReaderWriterQueue<T,MAX_BLOCK_SIZE> && other) : ReaderWriterQueue<T,MAX_BLOCK_SIZE> &
-operator=(const ReaderWriterQueue<T,MAX_BLOCK_SIZE> &) : ReaderWriterQueue<T,MAX_BLOCK_SIZE> &
..
{static} -align_for<U>(char * ptr) : char *
{static} -ceilToPow2(size_t x) : size_t
+emplace<Args...>(Args &&... args) : _Bool
+enqueue(const T & element) : bool
+enqueue(T && element) : bool
-inner_enqueue<AllocationMode canAlloc,Args...>(Args &&... args) : _Bool
{static} -make_block(size_t capacity) : Block *
+max_capacity() const : size_t
+peek() const : T *
+pop() : bool
+size_approx() const : size_t
+try_dequeue<U>(U & result) : _Bool
+try_emplace<Args...>(Args &&... args) : _Bool
+try_enqueue(const T & element) : bool
+try_enqueue(T && element) : bool
__
-cachelineFiller : char[]
-dequeuing : weak_atomic<bool>
-enqueuing : weak_atomic<bool>
-frontBlock : weak_atomic<Block *>
-largestBlockSize : size_t
-tailBlock : weak_atomic<Block *>
}
enum "moodycamel::ReaderWriterQueue::AllocationMode" as C_0006497119519718694638
enum C_0006497119519718694638 {
CanAlloc
CannotAlloc
}
class "moodycamel::ReaderWriterQueue::ReentrantGuard" as C_0010540759334486617822
class C_0010540759334486617822 {
-operator=(const ReentrantGuard &) : ReentrantGuard &
..
+ReentrantGuard(moodycamel::weak_atomic<bool> & _inSection) : void
+~ReentrantGuard() : void
__
-inSection : weak_atomic<bool> &
}
class "moodycamel::weak_atomic<size_t>" as C_0010248221507871373005
class C_0010248221507871373005 {
__
}
class "moodycamel::ReaderWriterQueue::Block" as C_0012534665197246766684
class C_0012534665197246766684 {
-operator=(const Block &) : Block &
..
+Block(const size_t & _size, char * _rawThis, char * _data) : void
__
+cachelineFiller0 : char[48]
+cachelineFiller1 : char[48]
+data : char *
+front : weak_atomic<size_t>
+localFront : size_t
+localTail : size_t
+next : weak_atomic<Block *>
+rawThis : char *
+sizeMask : const size_t
+tail : weak_atomic<size_t>
}
class "moodycamel::ReaderWriterQueue<TOrder>" as C_0018445470996257186289
class C_0018445470996257186289 {
__
}
class "moodycamel::details::thread_id_converter<thread_id_t>" as C_0001573692919878177928
class C_0001573692919878177928 {
{static} +prehash(const thread_id_t & x) : thread_id_hash_t
__
}
class "moodycamel::details::thread_id_size<std::size_t>" as C_0007007920188258396113
class C_0007007920188258396113 {
__
}
class "moodycamel::details::thread_id_size<4>" as C_0002556979922641020726
class C_0002556979922641020726 {
__
}
class "moodycamel::details::thread_id_size<8>" as C_0017691920257571270173
class C_0017691920257571270173 {
__
}
class "moodycamel::details::thread_id_converter<std::__thread_id>" as C_0000548120075112277389
class C_0000548120075112277389 {
{static} +prehash(const thread_id_t & x) : thread_id_hash_t
__
}
class "moodycamel::details::identity<T>" as C_0000559262839633318510
class C_0000559262839633318510 {
__
}
class "moodycamel::details::const_numeric_max<T>" as C_0008939174774826089849
class C_0008939174774826089849 {
__
{static} +value : const T
}
class "moodycamel::details::(anonymous_7026587)" as C_0010102671933832576635
class C_0010102671933832576635 {
__
+x : std_max_align_t
+y : long long
+z : void *
}
class "moodycamel::details::ConcurrentQueueProducerTypelessBase" as C_0007354695877637413273
class C_0007354695877637413273 {
+ConcurrentQueueProducerTypelessBase() : void
__
+inactive : std::atomic<bool>
+next : ConcurrentQueueProducerTypelessBase *
+token : ProducerToken *
}
class "moodycamel::details::_hash_32_or_64<_Bool use32>" as C_0008558182836305844382
class C_0008558182836305844382 {
{static} +hash(std::uint32_t h) : std::uint32_t
__
}
class "moodycamel::details::_hash_32_or_64<true>" as C_0016655525775751218869
class C_0016655525775751218869 {
{static} +hash(std::uint64_t h) : std::uint64_t
__
}
class "moodycamel::details::_hash_32_or_64<(size > 4)>" as C_0010679888882133582659
class C_0010679888882133582659 {
__
}
class "moodycamel::details::hash_32_or_64<std::size_t size>" as C_0002357758649880442931
class C_0002357758649880442931 {
__
}
class "moodycamel::details::nomove_if<_Bool Enable>" as C_0002261342275563203922
class C_0002261342275563203922 {
{static} +eval<T>(const T & x) : const T &
__
}
class "moodycamel::details::nomove_if<false>" as C_0009027417743667510402
class C_0009027417743667510402 {
{static} +eval<U>(U && x) : decltype(std::forward<U>(x))
__
}
class "moodycamel::details::is_trivially_destructible<T>" as C_0009150679077958619688
class C_0009150679077958619688 {
__
}
class "moodycamel::details::static_is_lock_free_num<T>" as C_0008126873870373545850
class C_0008126873870373545850 {
__
+value : enum
}
class "moodycamel::details::static_is_lock_free_num<signed char>" as C_0012232692167756372559
class C_0012232692167756372559 {
__
+value : enum
}
class "moodycamel::details::static_is_lock_free_num<short>" as C_0001019322826037170732
class C_0001019322826037170732 {
__
+value : enum
}
class "moodycamel::details::static_is_lock_free_num<int>" as C_0016439455697937781902
class C_0016439455697937781902 {
__
+value : enum
}
class "moodycamel::details::static_is_lock_free_num<long>" as C_0001066040059592920793
class C_0001066040059592920793 {
__
+value : enum
}
class "moodycamel::details::static_is_lock_free_num<long long>" as C_0006537014990189503048
class C_0006537014990189503048 {
__
+value : enum
}
class "moodycamel::details::static_is_lock_free_num<typename std::make_signed<T>::type>" as C_0014732735914805957802
class C_0014732735914805957802 {
__
}
class "moodycamel::details::static_is_lock_free<T>" as C_0008898087901785498991
class C_0008898087901785498991 {
__
}
class "moodycamel::details::static_is_lock_free<bool>" as C_0003774127303117517676
class C_0003774127303117517676 {
__
+value : enum
}
class "moodycamel::details::static_is_lock_free<U *>" as C_0010851314381331147510
class C_0010851314381331147510 {
__
+value : enum
}
class "moodycamel::ConcurrentQueueDefaultTraits" as C_0008595638336391087111
class C_0008595638336391087111 {
{static} +free(void * ptr) : void
{static} +malloc(size_t size) : void *
__
{static} +BLOCK_SIZE : const size_t
{static} +EXPLICIT_BLOCK_EMPTY_COUNTER_THRESHOLD : const size_t
{static} +EXPLICIT_CONSUMER_CONSUMPTION_QUOTA_BEFORE_ROTATE : const std::uint32_t
{static} +EXPLICIT_INITIAL_INDEX_SIZE : const size_t
{static} +IMPLICIT_INITIAL_INDEX_SIZE : const size_t
{static} +INITIAL_IMPLICIT_PRODUCER_HASH_SIZE : const size_t
{static} +MAX_SEMA_SPINS : const int
{static} +MAX_SUBQUEUE_SIZE : const size_t
{static} +RECYCLE_ALLOCATED_BLOCKS : const bool
}
class "moodycamel::ConcurrentQueue<T,Traits>" as C_0016485887319928416487
class C_0016485887319928416487 {
__
}
class "moodycamel::BlockingConcurrentQueue<T,Traits>" as C_0012972109286900275618
class C_0012972109286900275618 {
__
}
class "moodycamel::ProducerToken" as C_0005226004579763949977
class C_0005226004579763949977 {
+ProducerToken(ProducerToken && other) noexcept : void
+ProducerToken(const ProducerToken &) = deleted : void
+ProducerToken<T,Traits>(ConcurrentQueue<T,Traits> & queue) : void
+ProducerToken<T,Traits>(BlockingConcurrentQueue<T,Traits> & queue) : void
+~ProducerToken() : void
..
+operator=(ProducerToken && other) noexcept : ProducerToken &
+operator=(const ProducerToken &) = deleted : ProducerToken &
..
+swap(ProducerToken & other) noexcept : void
+valid() const : bool
__
#producer : details::ConcurrentQueueProducerTypelessBase *
}
class "moodycamel::ConsumerToken" as C_0006704203993918449512
class C_0006704203993918449512 {
+ConsumerToken(ConsumerToken && other) noexcept : void
+ConsumerToken(const ConsumerToken &) = deleted : void
+ConsumerToken<T,Traits>(ConcurrentQueue<T,Traits> & q) : void
+ConsumerToken<T,Traits>(BlockingConcurrentQueue<T,Traits> & q) : void
..
+operator=(ConsumerToken && other) noexcept : ConsumerToken &
+operator=(const ConsumerToken &) = deleted : ConsumerToken &
..
+swap(ConsumerToken & other) noexcept : void
__
-currentProducer : details::ConcurrentQueueProducerTypelessBase *
-desiredProducer : details::ConcurrentQueueProducerTypelessBase *
-initialOffset : std::uint32_t
-itemsConsumedFromCurrent : std::uint32_t
-lastKnownGlobalOffset : std::uint32_t
}
class "moodycamel::ConcurrentQueue::FreeList<moodycamel::ConcurrentQueue::Block>" as C_0007582714011713377937
class C_0007582714011713377937 {
__
}
class "moodycamel::ConcurrentQueue<T,Traits=ConcurrentQueueDefaultTraits>" as C_0006605823245508717767
class C_0006605823245508717767 {
+ConcurrentQueue(size_t capacity = 32 * BLOCK_SIZE) : void
+ConcurrentQueue(size_t minCapacity, size_t maxExplicitProducers, size_t maxImplicitProducers) : void
+ConcurrentQueue(const ConcurrentQueue<T,Traits> &) = deleted : void
+ConcurrentQueue(ConcurrentQueue<T,Traits> && other) noexcept : void
+~ConcurrentQueue() : void
..
+operator=(const ConcurrentQueue<T,Traits> &) = deleted : ConcurrentQueue<T,Traits> &
+operator=(ConcurrentQueue<T,Traits> && other) noexcept : ConcurrentQueue<T,Traits> &
..
-add_block_to_free_list(Block * block) : void
-add_blocks_to_free_list(Block * block) : void
-add_producer(ProducerBase * producer) : ProducerBase *
{static} -aligned_free<TAlign>(void * ptr) : void
{static} -aligned_malloc<TAlign>(size_t size) : void *
{static} -create<U,A1>(A1 && a1) : U *
{static} -create<U>() : U *
{static} -create_array<U>(size_t count) : U *
{static} -destroy<U>(U * p) : void
{static} -destroy_array<U>(U * p, size_t count) : void
+enqueue(const T & item) : bool
+enqueue(T && item) : bool
+enqueue(const producer_token_t & token, const T & item) : bool
+enqueue(const producer_token_t & token, T && item) : bool
+enqueue_bulk<It>(const producer_token_t & token, It itemFirst, size_t count) : _Bool
+enqueue_bulk<It>(It itemFirst, size_t count) : _Bool
-get_or_add_implicit_producer() : ImplicitProducer *
-inner_enqueue<AllocationMode canAlloc,U>(const producer_token_t & token, U && element) : _Bool
-inner_enqueue<AllocationMode canAlloc,U>(U && element) : _Bool
-inner_enqueue_bulk<AllocationMode canAlloc,It>(It itemFirst, size_t count) : _Bool
-inner_enqueue_bulk<AllocationMode canAlloc,It>(const producer_token_t & token, It itemFirst, size_t count) : _Bool
{static} +is_lock_free() constexpr : bool
-populate_initial_block_list(size_t blockCount) : void
-populate_initial_implicit_producer_hash() : void
-recycle_or_create_producer(bool isExplicit) : ProducerBase *
-reown_producers() : void
-requisition_block<AllocationMode canAlloc>() : Block *
+size_approx() const : size_t
+swap(ConcurrentQueue<T,Traits> & other) noexcept : void
-swap_implicit_producer_hashes(ConcurrentQueue<T,Traits> & other) : void
-swap_internal(ConcurrentQueue<T,Traits> & other) : ConcurrentQueue<T,Traits> &
+try_dequeue<U>(U & item) : _Bool
+try_dequeue<U>(consumer_token_t & token, U & item) : _Bool
+try_dequeue_bulk<It>(consumer_token_t & token, It itemFirst, size_t max) : size_t
+try_dequeue_bulk<It>(It itemFirst, size_t max) : size_t
+try_dequeue_bulk_from_producer<It>(const producer_token_t & producer, It itemFirst, size_t max) : size_t
+try_dequeue_from_producer<U>(const producer_token_t & producer, U & item) : _Bool
+try_dequeue_non_interleaved<U>(U & item) : _Bool
+try_enqueue(const producer_token_t & token, T && item) : bool
+try_enqueue(const producer_token_t & token, const T & item) : bool
+try_enqueue(T && item) : bool
+try_enqueue(const T & item) : bool
+try_enqueue_bulk<It>(const producer_token_t & token, It itemFirst, size_t count) : _Bool
+try_enqueue_bulk<It>(It itemFirst, size_t count) : _Bool
-try_get_block_from_free_list() : Block *
-try_get_block_from_initial_pool() : Block *
-update_current_producer_after_rotation(consumer_token_t & token) : bool
__
{static} +BLOCK_SIZE : const size_t
{static} +EXPLICIT_BLOCK_EMPTY_COUNTER_THRESHOLD : const size_t
{static} +EXPLICIT_CONSUMER_CONSUMPTION_QUOTA_BEFORE_ROTATE : const std::uint32_t
{static} +EXPLICIT_INITIAL_INDEX_SIZE : const size_t
{static} +IMPLICIT_INITIAL_INDEX_SIZE : const size_t
{static} +INITIAL_IMPLICIT_PRODUCER_HASH_SIZE : const size_t
{static} +MAX_SUBQUEUE_SIZE : const size_t
-freeList : FreeList<Block>
-globalExplicitConsumerOffset : std::atomic<std::uint32_t>
-implicitProducerHash : std::atomic<ImplicitProducerHash *>
-implicitProducerHashCount : std::atomic<size_t>
-implicitProducerHashResizeInProgress : std::atomic_flag
-initialBlockPool : Block *
-initialBlockPoolIndex : std::atomic<size_t>
-initialBlockPoolSize : size_t
-initialImplicitProducerHash : ImplicitProducerHash
-initialImplicitProducerHashEntries : std::array<ImplicitProducerKVP,INITIAL_IMPLICIT_PRODUCER_HASH_SIZE>
-nextExplicitConsumerId : std::atomic<std::uint32_t>
-producerCount : std::atomic<std::uint32_t>
-producerListTail : std::atomic<ProducerBase *>
}
enum "moodycamel::ConcurrentQueue::AllocationMode" as C_0005466765228051513175
enum C_0005466765228051513175 {
CanAlloc
CannotAlloc
}
class "moodycamel::ConcurrentQueue::FreeListNode<N>" as C_0006827519700828541106
class C_0006827519700828541106 {
+FreeListNode() : void
__
+freeListNext : std::atomic<N *>
+freeListRefs : std::atomic<std::uint32_t>
}
class "moodycamel::ConcurrentQueue::FreeList<N>" as C_0004657325431291428733
class C_0004657325431291428733 {
+operator=(const FreeList<N> &) = deleted : FreeList<N> &
..
+FreeList() : void
+FreeList(FreeList<N> && other) : void
+FreeList(const FreeList<N> &) = deleted : void
+add(N * node) : void
-add_knowing_refcount_is_zero(N * node) : void
+head_unsafe() const : N *
+swap(FreeList<N> & other) : void
+try_get() : N *
__
{static} -REFS_MASK : const std::uint32_t
{static} -SHOULD_BE_ON_FREELIST : const std::uint32_t
-freeListHead : std::atomic<N *>
}
enum "moodycamel::ConcurrentQueue::InnerQueueContext" as C_0003375562760360517975
enum C_0003375562760360517975 {
implicit_context
explicit_context
}
class "moodycamel::ConcurrentQueue::Block" as C_0005108517292306790329
class C_0005108517292306790329 {
+operator[](index_t idx) noexcept : T *
+operator[](index_t idx) const noexcept : const T *
..
+Block() : void
+is_empty<InnerQueueContext context>() const : _Bool
+reset_empty<InnerQueueContext context>() : void
+set_all_empty<InnerQueueContext context>() : void
+set_empty<InnerQueueContext context>(index_t i) : _Bool
+set_many_empty<InnerQueueContext context>(index_t i, size_t count) : _Bool
__
+dynamicallyAllocated : bool
-elements : typename details::identity<char[sizeof(T) * BLOCK_SIZE]>::type
+elementsCompletelyDequeued : std::atomic<size_t>
+emptyFlags : std::atomic<bool>[]
+freeListNext : std::atomic<Block *>
+freeListRefs : std::atomic<std::uint32_t>
+next : Block *
}
class "moodycamel::ConcurrentQueue::ProducerBase" as C_0012046930449674625079
class C_0012046930449674625079 {
+ProducerBase(ConcurrentQueue<T,Traits> * parent_, bool isExplicit_) : void
+dequeue<U>(U & element) : _Bool
+dequeue_bulk<It>(It & itemFirst, size_t max) : size_t
+getTail() const : index_t
+next_prod() const : ProducerBase *
+size_approx() const : size_t
+~ProducerBase() : void
__
#dequeueOptimisticCount : std::atomic<index_t>
#dequeueOvercommit : std::atomic<index_t>
#headIndex : std::atomic<index_t>
+isExplicit : bool
+parent : ConcurrentQueue<T,Traits> *
#tailBlock : Block *
#tailIndex : std::atomic<index_t>
}
class "moodycamel::ConcurrentQueue::ExplicitProducer" as C_0016909934031976682056
class C_0016909934031976682056 {
+ExplicitProducer(ConcurrentQueue<T,Traits> * parent_) : void
+dequeue<U>(U & element) : _Bool
+dequeue_bulk<It>(It & itemFirst, size_t max) : size_t
+enqueue<AllocationMode allocMode,U>(U && element) : _Bool
+enqueue_bulk<AllocationMode allocMode,It>(It itemFirst, size_t count) : _Bool
-new_block_index(size_t numberOfFilledSlotsToExpose) : bool
+~ExplicitProducer() : void
__
-blockIndex : std::atomic<BlockIndexHeader *>
-pr_blockIndexEntries : BlockIndexEntry *
-pr_blockIndexFront : size_t
-pr_blockIndexRaw : void *
-pr_blockIndexSize : size_t
-pr_blockIndexSlotsUsed : size_t
}
class "moodycamel::ConcurrentQueue::ExplicitProducer::BlockIndexEntry" as C_0012175140842840985513
class C_0012175140842840985513 {
__
+base : index_t
+block : Block *
}
class "moodycamel::ConcurrentQueue::ExplicitProducer::BlockIndexHeader" as C_0018099568879629407975
class C_0018099568879629407975 {
__
+entries : BlockIndexEntry *
+front : std::atomic<size_t>
+prev : void *
+size : size_t
}
class "moodycamel::ConcurrentQueue::ImplicitProducer" as C_0015269360760049581219
class C_0015269360760049581219 {
+ImplicitProducer(ConcurrentQueue<T,Traits> * parent_) : void
+dequeue<U>(U & element) : _Bool
+dequeue_bulk<It>(It & itemFirst, size_t max) : size_t
+enqueue<AllocationMode allocMode,U>(U && element) : _Bool
+enqueue_bulk<AllocationMode allocMode,It>(It itemFirst, size_t count) : _Bool
-get_block_index_entry_for_index(index_t index) const : BlockIndexEntry *
-get_block_index_index_for_index(index_t index, BlockIndexHeader *& localBlockIndex) const : size_t
-insert_block_index_entry<AllocationMode allocMode>(BlockIndexEntry *& idxEntry, index_t blockStartIndex) : _Bool
-new_block_index() : bool
-rewind_block_index_tail() : void
+~ImplicitProducer() : void
__
{static} -INVALID_BLOCK_BASE : const index_t
-blockIndex : std::atomic<BlockIndexHeader *>
-nextBlockIndexCapacity : size_t
}
class "moodycamel::ConcurrentQueue::ImplicitProducer::BlockIndexEntry" as C_0015525724257833868216
class C_0015525724257833868216 {
__
+key : std::atomic<index_t>
+value : std::atomic<Block *>
}
class "moodycamel::ConcurrentQueue::ImplicitProducer::BlockIndexHeader" as C_0012039430645626548603
class C_0012039430645626548603 {
__
+capacity : size_t
+entries : BlockIndexEntry *
+index : BlockIndexEntry **
+prev : BlockIndexHeader *
+tail : std::atomic<size_t>
}
class "moodycamel::ConcurrentQueue::ImplicitProducerKVP" as C_0010227232352077106976
class C_0010227232352077106976 {
+operator=(ImplicitProducerKVP && other) noexcept : ImplicitProducerKVP &
..
+ImplicitProducerKVP() : void
+ImplicitProducerKVP(ImplicitProducerKVP && other) noexcept : void
+swap(ImplicitProducerKVP & other) noexcept : void
__
+key : std::atomic<details::thread_id_t>
+value : ImplicitProducer *
}
class "moodycamel::ConcurrentQueue::ImplicitProducerHash" as C_0017336843763074145637
class C_0017336843763074145637 {
__
+capacity : size_t
+entries : ImplicitProducerKVP *
+prev : ImplicitProducerHash *
}
class "moodycamel::ConcurrentQueue<TOrder>" as C_0001767436129667132595
class C_0001767436129667132595 {
__
}
class "moodycamel::ConcurrentQueueTests" as C_0015927769557442376479
class C_0015927769557442376479 {
__
}
class "MCLockFreeQueue<TOrder>" as C_0009225909413534652267
class C_0009225909413534652267 {
+MCLockFreeQueue() : void
..
+dequeueOrder(TOrder & order) : bool
+enqueueOrder(TOrder & order) : bool
+getFront(TOrder & order) : bool
+getSize() : uint64_t
+isEmpty() : bool
__
-mcQueue_ : moodycamel::ReaderWriterQueue<TOrder>
}
class "IQueue<TOrder,MCLockFreeQueue<TOrder>>" as C_0008853637705242383656
class C_0008853637705242383656 {
__
}
class "MCConcurrentQueue<TOrder>" as C_0001007823925195080018
class C_0001007823925195080018 {
+MCConcurrentQueue() : void
..
+dequeueOrder(TOrder & order) : bool
+enqueueOrder(TOrder & order) : bool
+getFront(TOrder & order) : bool
+getSize() : uint64_t
+isEmpty() : bool
__
-mcMPMCQueue_ : moodycamel::ConcurrentQueue<TOrder>
}
class "IQueue<TOrder,MCConcurrentQueue<TOrder>>" as C_0001029475552043351851
class C_0001029475552043351851 {
__
}
class "RegularQueue<BenchmarkOrder>" as C_0009863716867644236628
class C_0009863716867644236628 {
__
}
class "MatchingEngine<BenchmarkOrder>" as C_0015036118073739753006
class C_0015036118073739753006 {
__
}
class "BenchmarkWrapper<RegularQueue<BenchmarkOrder>,BenchmarkOrder>" as C_0017335760401935700433
class C_0017335760401935700433 {
+BenchmarkWrapper(RegularQueue<BenchmarkOrder> & structure, TestParams & params) : void
+~BenchmarkWrapper() : void
..
+addDeqThread() : int
+addEnqThread() : int
+dequeueLatency(BenchmarkOrder & o, int threadId) : bool
+dequeueOrdering(BenchmarkOrder & o, int threadId) : bool
+enqueueOrder(BenchmarkOrder & o, int threadId) : bool
+processLatencies() : void
+processMatching(std::vector<BenchmarkOrder> & orders, std::vector<uint64_t> & actual_order) : void
+processOrders(CollectionOrderGenerator<BenchmarkOrder> & generator) : void
__
-NUM_THREADS_ : const uint64_t
-THREAD_LIMIT_ : const uint64_t
-TOTAL_ORDERS_ : const uint64_t
-current_cycle_ : uint64_t
-dequeue_thread_id : std::atomic<int>
-enqueue_thread_id_ : std::atomic<int>
-exchange_ : MatchingEngine<BenchmarkOrder>
-latencies_dequeue_ : uint64_t *
-latencies_enqueue_ : uint64_t *
-local_index_deq_ : std::vector<uint64_t>
-local_index_enq_ : std::vector<uint64_t>
-sequence_dequeue_ : uint64_t *
-structure_ : RegularQueue<BenchmarkOrder> &
-timestamps_dequeue_ : uint64_t *
}
class "MCLockFreeQueue<BenchmarkOrder>" as C_0005992163624234563308
class C_0005992163624234563308 {
__
}
class "BenchmarkWrapper<MCLockFreeQueue<BenchmarkOrder>,BenchmarkOrder>" as C_0011092328427061094435
class C_0011092328427061094435 {
+BenchmarkWrapper(MCLockFreeQueue<BenchmarkOrder> & structure, TestParams & params) : void
+~BenchmarkWrapper() : void
..
+addDeqThread() : int
+addEnqThread() : int
+dequeueLatency(BenchmarkOrder & o, int threadId) : bool
+dequeueOrdering(BenchmarkOrder & o, int threadId) : bool
+enqueueOrder(BenchmarkOrder & o, int threadId) : bool
+processLatencies() : void
+processMatching(std::vector<BenchmarkOrder> & orders, std::vector<uint64_t> & actual_order) : void
+processOrders(CollectionOrderGenerator<BenchmarkOrder> & generator) : void
__
-NUM_THREADS_ : const uint64_t
-THREAD_LIMIT_ : const uint64_t
-TOTAL_ORDERS_ : const uint64_t
-current_cycle_ : uint64_t
-dequeue_thread_id : std::atomic<int>
-enqueue_thread_id_ : std::atomic<int>
-exchange_ : MatchingEngine<BenchmarkOrder>
-latencies_dequeue_ : uint64_t *
-latencies_enqueue_ : uint64_t *
-local_index_deq_ : std::vector<uint64_t>
-local_index_enq_ : std::vector<uint64_t>
-sequence_dequeue_ : uint64_t *
-structure_ : MCLockFreeQueue<BenchmarkOrder> &
-timestamps_dequeue_ : uint64_t *
}
class "MCConcurrentQueue<BenchmarkOrder>" as C_0017348843357454918994
class C_0017348843357454918994 {
__
}
class "BenchmarkWrapper<MCConcurrentQueue<BenchmarkOrder>,BenchmarkOrder>" as C_0010177604818051238763
class C_0010177604818051238763 {
+BenchmarkWrapper(MCConcurrentQueue<BenchmarkOrder> & structure, TestParams & params) : void
+~BenchmarkWrapper() : void
..
+addDeqThread() : int
+addEnqThread() : int
+dequeueLatency(BenchmarkOrder & o, int threadId) : bool
+dequeueOrdering(BenchmarkOrder & o, int threadId) : bool
+enqueueOrder(BenchmarkOrder & o, int threadId) : bool
+processLatencies() : void
+processMatching(std::vector<BenchmarkOrder> & orders, std::vector<uint64_t> & actual_order) : void
+processOrders(CollectionOrderGenerator<BenchmarkOrder> & generator) : void
__
-NUM_THREADS_ : const uint64_t
-THREAD_LIMIT_ : const uint64_t
-TOTAL_ORDERS_ : const uint64_t
-current_cycle_ : uint64_t
-dequeue_thread_id : std::atomic<int>
-enqueue_thread_id_ : std::atomic<int>
-exchange_ : MatchingEngine<BenchmarkOrder>
-latencies_dequeue_ : uint64_t *
-latencies_enqueue_ : uint64_t *
-local_index_deq_ : std::vector<uint64_t>
-local_index_enq_ : std::vector<uint64_t>
-sequence_dequeue_ : uint64_t *
-structure_ : MCConcurrentQueue<BenchmarkOrder> &
-timestamps_dequeue_ : uint64_t *
}
C_0015071573456055921610 ..> C_0018274157797402886569
C_0004868660622095439450 ..|> C_0001502315327506686249
C_0006141393625057497785 ..|> C_0015917489165880891568
C_0009731533903661377328 ..|> C_0015917489165880891568
C_0008715103624241555149 ..|> C_0015917489165880891568
C_0003951836044858157539 ..|> C_0015917489165880891568
C_0006103817506749732769 ..|> C_0015917489165880891568
C_0017436445626497553805 ..|> C_0015917489165880891568
C_0008029349524528707546 ..|> C_0015917489165880891568
C_0008341635386930600517 ..|> C_0015917489165880891568
C_0009393301499987978215 ..|> C_0015917489165880891568
C_0012234620782510432960 ..|> C_0015917489165880891568
C_0016037793634526659641 ..> C_0007154198836549622057
C_0016037793634526659641 ..|> C_0001502315327506686249
C_0000545256936882154136 o-- C_0005382069405675192202 : +test
C_0001541704363114617379 o-- C_0004101108369970767411 : +prices
C_0001541704363114617379 o-- C_0008659206544950497298 : +quantities
C_0007154198836549622057 o-- C_0001318154217281991402 : +type
C_0012117148133954156937 ..> C_0001541704363114617379
C_0006074800203009140101 ..|> C_0006074800203009140101
C_0006074800203009140101 ..> C_0016951693323196263165
C_0006074800203009140101 o-- C_0011895198819008469883 : -rng_
C_0006074800203009140101 o-- C_0001157372402074594407 : -orderGenerators
C_0006074800203009140101 o-- C_0015071573456055921610 : -generatorsVector
C_0004426522355160941721 <|-- C_0006074800203009140101
C_0004426522355160941721 ..> C_0006074800203009140101
C_0004426522355160941721 ..|> C_0005927283058235908490
C_0012299635414718796748 ..> C_0007154198836549622057
C_0012299635414718796748 ..|> C_0006074800203009140101
C_0004197219859795910943 ..> C_0000545256936882154136
C_0004197219859795910943 ..> C_0012299635414718796748
C_0004197219859795910943 ..> C_0006074800203009140101
C_0004197219859795910943 ..> C_0007154198836549622057
C_0004197219859795910943 ..> C_0001502315327506686249
C_0004197219859795910943 o-- C_0010475541865559020492 : -enqueue_thread_id_
C_0004197219859795910943 o-- C_0010475541865559020492 : -dequeue_thread_id
C_0004197219859795910943 o-- C_0004868660622095439450 : -local_index_enq_
C_0004197219859795910943 o-- C_0004868660622095439450 : -local_index_deq_
C_0004197219859795910943 o-- C_0012117148133954156937 : -exchange_
C_0011311009255428972885 ..|> C_0011311009255428972885
C_0011311009255428972885 o-- C_0011163234010607091668 : -queue_
C_0010851425212132458938 <|-- C_0011311009255428972885
C_0010851425212132458938 ..> C_0011311009255428972885
C_0010851425212132458938 ..|> C_0012363341514023868006
C_0004060610673416376720 o-- C_0015917489165880891568 : -value
C_0008779611149973792242 ..> C_0003403297090366118165
C_0008779611149973792242 o-- C_0006032237364370801877 : -m_count
C_0008779611149973792242 o-- C_0009548065447884463581 : -m_sema
C_0006032237364370801877 ..> C_0003403297090366118165
C_0006032237364370801877 ..|> C_0004060610673416376720
C_0002352003492599364807 ..|> C_0004060610673416376720
C_0001132556369915620544 ..|> C_0004060610673416376720
C_0009385575831178810672 ..> C_0012534665197246766684
C_0009385575831178810672 o-- C_0002352003492599364807 : -frontBlock
C_0009385575831178810672 o-- C_0002352003492599364807 : -tailBlock
C_0009385575831178810672 o-- C_0001132556369915620544 : -enqueuing
C_0009385575831178810672 o-- C_0001132556369915620544 : -dequeuing
C_0006497119519718694638 --+ C_0009385575831178810672
C_0010540759334486617822 --+ C_0009385575831178810672
C_0010540759334486617822 --> C_0001132556369915620544 : -inSection
C_0010540759334486617822 --> C_0004060610673416376720 : -inSection
C_0010248221507871373005 ..|> C_0004060610673416376720
C_0012534665197246766684 --+ C_0009385575831178810672
C_0012534665197246766684 o-- C_0010248221507871373005 : +front
C_0012534665197246766684 o-- C_0010248221507871373005 : +tail
C_0012534665197246766684 o-- C_0002352003492599364807 : +next
C_0018445470996257186289 ..|> C_0009385575831178810672
C_0002556979922641020726 ..|> C_0007007920188258396113
C_0017691920257571270173 ..|> C_0007007920188258396113
C_0000548120075112277389 ..|> C_0001573692919878177928
C_0007354695877637413273 --> C_0007354695877637413273 : +next
C_0007354695877637413273 o-- C_0006141393625057497785 : +inactive
C_0007354695877637413273 --> C_0005226004579763949977 : +token
C_0016655525775751218869 ..|> C_0008558182836305844382
C_0010679888882133582659 ..|> C_0008558182836305844382
C_0010679888882133582659 <|-- C_0002357758649880442931
C_0009027417743667510402 ..|> C_0002261342275563203922
C_0006434691970608931182 <|-- C_0009150679077958619688
C_0012232692167756372559 ..|> C_0008126873870373545850
C_0001019322826037170732 ..|> C_0008126873870373545850
C_0016439455697937781902 ..|> C_0008126873870373545850
C_0001066040059592920793 ..|> C_0008126873870373545850
C_0006537014990189503048 ..|> C_0008126873870373545850
C_0014732735914805957802 ..|> C_0008126873870373545850
C_0014732735914805957802 <|-- C_0008898087901785498991
C_0003774127303117517676 ..|> C_0008898087901785498991
C_0010851314381331147510 ..|> C_0008898087901785498991
C_0016485887319928416487 ..|> C_0016485887319928416487
C_0012972109286900275618 ..|> C_0012972109286900275618
C_0005226004579763949977 ..> C_0016485887319928416487
C_0005226004579763949977 ..> C_0012972109286900275618
C_0005226004579763949977 --> C_0007354695877637413273 : #producer
C_0005226004579763949977 <.. C_0015927769557442376479 : +<<friend>>
C_0006704203993918449512 ..> C_0016485887319928416487
C_0006704203993918449512 ..> C_0012972109286900275618
C_0006704203993918449512 --> C_0007354695877637413273 : -currentProducer
C_0006704203993918449512 --> C_0007354695877637413273 : -desiredProducer
C_0006704203993918449512 <.. C_0015927769557442376479 : +<<friend>>
C_0006605823245508717767 ..> C_0012046930449674625079
C_0006605823245508717767 ..> C_0015269360760049581219
C_0006605823245508717767 o-- C_0009731533903661377328 : -producerListTail
C_0006605823245508717767 o-- C_0008715103624241555149 : -producerCount
C_0006605823245508717767 o-- C_0003951836044858157539 : -initialBlockPoolIndex
C_0006605823245508717767 --> C_0005108517292306790329 : -initialBlockPool
C_0006605823245508717767 o-- C_0007582714011713377937 : -freeList
C_0006605823245508717767 o-- C_0006103817506749732769 : -implicitProducerHash
C_0006605823245508717767 o-- C_0003951836044858157539 : -implicitProducerHashCount
C_0006605823245508717767 o-- C_0017336843763074145637 : -initialImplicitProducerHash
C_0006605823245508717767 o-- C_0017265195126605227022 : -initialImplicitProducerHashEntries
C_0006605823245508717767 o-- C_0008715103624241555149 : -nextExplicitConsumerId
C_0006605823245508717767 o-- C_0008715103624241555149 : -globalExplicitConsumerOffset
C_0006605823245508717767 <.. C_0015927769557442376479 : +<<friend>>
C_0006605823245508717767 <.. C_0006704203993918449512 : +<<friend>>
C_0006605823245508717767 <.. C_0005226004579763949977 : +<<friend>>
C_0005466765228051513175 --+ C_0006605823245508717767
C_0006827519700828541106 --+ C_0006605823245508717767
C_0006827519700828541106 o-- C_0008715103624241555149 : +freeListRefs
C_0006827519700828541106 o-- C_0017436445626497553805 : +freeListNext
C_0004657325431291428733 --+ C_0006605823245508717767
C_0004657325431291428733 o-- C_0017436445626497553805 : -freeListHead
C_0003375562760360517975 --+ C_0006605823245508717767
C_0005108517292306790329 --+ C_0006605823245508717767
C_0005108517292306790329 --> C_0005108517292306790329 : +next
C_0005108517292306790329 o-- C_0003951836044858157539 : +elementsCompletelyDequeued
C_0005108517292306790329 o-- C_0006141393625057497785 : +emptyFlags
C_0005108517292306790329 o-- C_0008715103624241555149 : +freeListRefs
C_0005108517292306790329 o-- C_0008029349524528707546 : +freeListNext
C_0012046930449674625079 --+ C_0006605823245508717767
C_0012046930449674625079 o-- C_0008341635386930600517 : #tailIndex
C_0012046930449674625079 o-- C_0008341635386930600517 : #headIndex
C_0012046930449674625079 o-- C_0008341635386930600517 : #dequeueOptimisticCount
C_0012046930449674625079 o-- C_0008341635386930600517 : #dequeueOvercommit
C_0012046930449674625079 --> C_0005108517292306790329 : #tailBlock
C_0007354695877637413273 <|-- C_0012046930449674625079
C_0016909934031976682056 --+ C_0006605823245508717767
C_0016909934031976682056 o-- C_0009393301499987978215 : -blockIndex
C_0016909934031976682056 --> C_0012175140842840985513 : -pr_blockIndexEntries
C_0012175140842840985513 --+ C_0016909934031976682056
C_0012175140842840985513 --> C_0005108517292306790329 : +block
C_0018099568879629407975 --+ C_0016909934031976682056
C_0018099568879629407975 o-- C_0003951836044858157539 : +front
C_0018099568879629407975 --> C_0012175140842840985513 : +entries
C_0015269360760049581219 --+ C_0006605823245508717767
C_0015269360760049581219 ..> C_0015525724257833868216
C_0015269360760049581219 ..> C_0012039430645626548603
C_0015269360760049581219 o-- C_0009393301499987978215 : -blockIndex
C_0015525724257833868216 --+ C_0015269360760049581219
C_0015525724257833868216 o-- C_0008341635386930600517 : +key
C_0015525724257833868216 o-- C_0008029349524528707546 : +value
C_0012039430645626548603 --+ C_0015269360760049581219
C_0012039430645626548603 o-- C_0003951836044858157539 : +tail
C_0012039430645626548603 --> C_0015525724257833868216 : +entries
C_0012039430645626548603 --> C_0015525724257833868216 : +index
C_0012039430645626548603 --> C_0012039430645626548603 : +prev
C_0010227232352077106976 --+ C_0006605823245508717767
C_0010227232352077106976 o-- C_0012234620782510432960 : +key
C_0010227232352077106976 --> C_0015269360760049581219 : +value
C_0017336843763074145637 --+ C_0006605823245508717767
C_0017336843763074145637 --> C_0010227232352077106976 : +entries
C_0017336843763074145637 --> C_0017336843763074145637 : +prev
C_0001767436129667132595 ..|> C_0006605823245508717767
C_0009225909413534652267 ..|> C_0009225909413534652267
C_0009225909413534652267 o-- C_0018445470996257186289 : -mcQueue_
C_0008853637705242383656 <|-- C_0009225909413534652267
C_0008853637705242383656 ..> C_0009225909413534652267
C_0008853637705242383656 ..|> C_0012363341514023868006
C_0001007823925195080018 ..|> C_0001007823925195080018
C_0001007823925195080018 o-- C_0001767436129667132595 : -mcMPMCQueue_
C_0001029475552043351851 <|-- C_0001007823925195080018
C_0001029475552043351851 ..> C_0001007823925195080018
C_0001029475552043351851 ..|> C_0012363341514023868006
C_0009863716867644236628 ..> C_0007154198836549622057
C_0009863716867644236628 ..|> C_0011311009255428972885
C_0015036118073739753006 ..> C_0007154198836549622057
C_0015036118073739753006 ..|> C_0012117148133954156937
C_0017335760401935700433 ..> C_0007154198836549622057
C_0017335760401935700433 ..|> C_0011311009255428972885
C_0017335760401935700433 ..|> C_0004197219859795910943
C_0017335760401935700433 ..> C_0000545256936882154136
C_0017335760401935700433 ..> C_0012299635414718796748
C_0017335760401935700433 ..> C_0006074800203009140101
C_0017335760401935700433 ..> C_0016037793634526659641
C_0017335760401935700433 o-- C_0010475541865559020492 : -enqueue_thread_id_
C_0017335760401935700433 o-- C_0010475541865559020492 : -dequeue_thread_id
C_0017335760401935700433 o-- C_0004868660622095439450 : -local_index_enq_
C_0017335760401935700433 o-- C_0004868660622095439450 : -local_index_deq_
C_0017335760401935700433 o-- C_0015036118073739753006 : -exchange_
C_0005992163624234563308 ..> C_0007154198836549622057
C_0005992163624234563308 ..|> C_0009225909413534652267
C_0011092328427061094435 ..> C_0007154198836549622057
C_0011092328427061094435 ..|> C_0009225909413534652267
C_0011092328427061094435 ..|> C_0004197219859795910943
C_0011092328427061094435 ..> C_0000545256936882154136
C_0011092328427061094435 ..> C_0012299635414718796748
C_0011092328427061094435 ..> C_0006074800203009140101
C_0011092328427061094435 ..> C_0016037793634526659641
C_0011092328427061094435 o-- C_0010475541865559020492 : -enqueue_thread_id_
C_0011092328427061094435 o-- C_0010475541865559020492 : -dequeue_thread_id
C_0011092328427061094435 o-- C_0004868660622095439450 : -local_index_enq_
C_0011092328427061094435 o-- C_0004868660622095439450 : -local_index_deq_
C_0011092328427061094435 o-- C_0015036118073739753006 : -exchange_
C_0017348843357454918994 ..> C_0007154198836549622057
C_0017348843357454918994 ..|> C_0001007823925195080018
C_0010177604818051238763 ..> C_0007154198836549622057
C_0010177604818051238763 ..|> C_0001007823925195080018
C_0010177604818051238763 ..|> C_0004197219859795910943
C_0010177604818051238763 ..> C_0000545256936882154136
C_0010177604818051238763 ..> C_0012299635414718796748
C_0010177604818051238763 ..> C_0006074800203009140101
C_0010177604818051238763 ..> C_0016037793634526659641
C_0010177604818051238763 o-- C_0010475541865559020492 : -enqueue_thread_id_
C_0010177604818051238763 o-- C_0010475541865559020492 : -dequeue_thread_id
C_0010177604818051238763 o-- C_0004868660622095439450 : -local_index_enq_
C_0010177604818051238763 o-- C_0004868660622095439450 : -local_index_deq_
C_0010177604818051238763 o-- C_0015036118073739753006 : -exchange_

'Generated with clang-uml, version 0.6.2
'LLVM version Homebrew clang version 21.1.8
@enduml
